<?xml version="1.0" standalone="no"?>
<!DOCTYPE svg PUBLIC "-//W3C//DTD SVG 20010904//EN"
 "http://www.w3.org/TR/2001/REC-SVG-20010904/DTD/svg10.dtd">
<svg version="1.0" xmlns="http://www.w3.org/2000/svg"
 width="200.000000pt" height="200.000000pt" viewBox="0 0 200.000000 200.000000"
 preserveAspectRatio="xMidYMid meet">
<metadata>
Created by potrace 1.11, written by Peter Selinger 2001-2013
</metadata>
<g transform="translate(0.000000,200.000000) scale(0.100000,-0.100000)"
fill="#000000" stroke="none">
<path d="M587 1609 c-25 -15 -21 -37 13 -71 17 -17 29 -32 27 -34 -9 -10 -82
21 -112 47 -63 56 -103 14 -44 -47 45 -46 104 -64 216 -64 51 0 93 -3 94 -7 0
-5 2 -18 3 -30 l3 -23 -176 -1 c-209 -1 -242 -4 -290 -28 -68 -35 -183 -207
-215 -321 -19 -70 -24 -97 -32 -190 -7 -88 -9 -92 -37 -88 -20 3 -22 -1 -23
-55 -1 -86 2 -87 141 -89 118 -1 119 -1 125 23 19 68 65 122 138 159 82 40
202 19 275 -49 31 -28 67 -91 67 -116 0 -10 10 -15 28 -16 26 -1 441 0 473 1
10 0 20 16 28 40 6 22 26 56 42 75 l31 35 159 0 158 0 26 -27 c28 -31 55 -83
55 -107 0 -17 1 -17 85 -17 94 0 110 1 124 10 17 11 23 130 6 132 -5 1 -18 2
-27 2 -16 0 -18 12 -19 111 0 61 -2 120 -4 131 -2 11 -7 40 -10 65 -20 147
-75 283 -123 307 -9 4 -125 10 -257 13 l-239 5 0 25 0 25 114 3 c85 2 118 6
126 17 6 8 33 15 70 17 55 3 59 5 62 29 4 34 -1 35 -205 34 -90 0 -163 2 -164
5 -8 56 -25 73 -45 45 -8 -11 -12 -25 -10 -32 3 -7 2 -14 -2 -14 -24 -4 -402
-3 -403 1 -5 32 -10 44 -20 51 -18 11 -41 -11 -36 -33 11 -39 -89 -16 -148 35
-23 19 -35 23 -48 16z m654 -176 c0 -5 2 -18 3 -31 l3 -22 -205 2 -205 3 -1
28 -2 27 203 0 c112 0 203 -3 204 -7z m-563 -185 c7 -7 12 -37 12 -84 0 -68
-2 -75 -22 -82 -18 -7 -186 -9 -234 -3 -5 0 -10 19 -9 41 1 22 -3 41 -7 41
-37 6 -42 3 -44 -26 -3 -64 0 -61 -61 -59 -74 2 -73 2 -73 13 0 12 67 129 87
152 11 13 40 16 176 16 94 0 167 -4 175 -9z m280 0 c7 -7 12 -37 12 -84 0 -60
-3 -75 -17 -82 -22 -10 -173 -9 -191 2 -8 4 -12 33 -12 81 0 59 3 76 17 83 22
13 175 12 191 0z m272 -3 c17 -21 15 -147 -4 -160 -16 -12 -181 -14 -192 -2
-10 10 -13 139 -3 158 11 21 181 25 199 4z m271 5 c9 -6 14 -31 15 -72 2 -101
1 -102 -97 -104 -118 -1 -119 0 -119 96 0 54 4 80 13 83 23 7 174 5 188 -3z
m-1292 -342 c13 -39 7 -76 -14 -97 -15 -15 -18 -14 -31 3 -16 23 -18 64 -4
100 13 36 36 32 49 -6z"/>
<path d="M1467 726 c-50 -18 -76 -42 -97 -89 -41 -91 11 -197 110 -224 98 -27
196 44 205 148 9 115 -110 205 -218 165z m103 -108 c41 -44 11 -111 -50 -111
-62 0 -90 65 -48 110 27 29 71 30 98 1z"/>
<path d="M441 713 c-101 -50 -113 -206 -20 -275 36 -27 97 -39 140 -28 138 37
169 215 52 295 -45 30 -120 34 -172 8z m123 -94 c48 -38 22 -119 -39 -119 -29
0 -75 40 -75 65 0 26 20 55 43 65 33 13 42 12 71 -11z"/>
</g>
</svg>
